<?xml version="1.0"?>
<svg version="1.1" xmlns="http://www.w3.org/2000/svg" xmlns:xlink="http://www.w3.org/1999/xlink" width="192" height="192">
    <desc iVinci="yes" version="5.0" gridStep="20" showGrid="no" snapToGrid="no" codePlatform="0"/>
    <g id="Layer1" name="Layer 1" opacity="1">
        <g id="Shape1">
            <desc shapeID="1" type="0" basicInfo-basicType="1" basicInfo-roundedRectRadius="12" basicInfo-polygonSides="6" basicInfo-starPoints="5" bounding="rect(-58.5,-90.5001,117,181)" text="" font-familyName="Apple Symbols" font-pixelSize="100" font-bold="0" font-underline="0" font-alignment="1" strokeStyle="0" markerStart="0" markerEnd="0" shadowEnabled="0" shadowOffsetX="0" shadowOffsetY="2" shadowBlur="4" shadowOpacity="160" blurEnabled="0" blurRadius="4" transform="matrix(1.64103,0,0,1.06077,96,96)" pers-center="0,0" pers-size="0,0" pers-start="0,0" pers-end="0,0" locked="0" mesh="" flag=""/>
            <path id="shapePath1" d="M7.6294e-06,3.05176e-05 L192,3.05176e-05 L192,192 L7.6294e-06,192 L7.6294e-06,3.05176e-05 Z" style="stroke:none;fill-rule:evenodd;fill:#3459e6;fill-opacity:1;"/>
        </g>
        <g id="Shape2">
            <desc shapeID="2" type="0" basicInfo-basicType="0" basicInfo-roundedRectRadius="12" basicInfo-polygonSides="6" basicInfo-starPoints="5" bounding="rect(-30.7617,-48.4277,61.5234,96.8555)" text="P" font-familyName="Apple Symbols" font-pixelSize="180" font-bold="0" font-underline="0" font-alignment="1" strokeStyle="0" markerStart="0" markerEnd="0" shadowEnabled="0" shadowOffsetX="0" shadowOffsetY="2" shadowBlur="4" shadowOpacity="160" blurEnabled="0" blurRadius="4" transform="matrix(1,0,0,1,103,98)" pers-center="0,0" pers-size="0,0" pers-start="0,0" pers-end="0,0" locked="0" mesh="" flag=""/>
            <path id="shapePath2" d="M84.8945,146.428 L72.2383,146.428 L72.2383,49.5723 L99.2207,49.5723 C109.475,49.5723 116.726,50.627 120.974,52.7364 C125.222,54.8457 128.415,57.9219 130.554,61.9649 C132.692,66.0078 133.762,70.7246 133.762,76.1153 C133.762,85.1973 130.671,92.8145 124.489,98.9668 C118.308,105.119 109.094,108.195 96.8477,108.195 L84.8945,108.195 L84.8945,146.428 M84.8945,98.5274 L93.332,98.5274 C104.523,98.5274 111.877,96.3741 115.393,92.0674 C118.908,87.7608 120.666,82.6192 120.666,76.6426 C120.666,71.4278 119.245,67.2383 116.403,64.0742 C113.562,60.9102 107.922,59.3282 99.4844,59.3282 L84.8945,59.3282 L84.8945,98.5274 Z" style="stroke:none;fill-rule:nonzero;fill:#ffffff;fill-opacity:1;"/>
        </g>
    </g>
</svg>
